<?xml version="1.0" encoding="UTF-8" standalone="no"?><!DOCTYPE svg PUBLIC "-//W3C//DTD SVG 1.1//EN" "http://www.w3.org/Graphics/SVG/1.1/DTD/svg11.dtd"><svg width="100%" height="100%" viewBox="0 0 8334 8334" version="1.1" xmlns="http://www.w3.org/2000/svg" xmlns:xlink="http://www.w3.org/1999/xlink" xml:space="preserve" xmlns:serif="http://www.serif.com/" style="fill-rule:evenodd;clip-rule:evenodd;stroke-linejoin:round;stroke-miterlimit:2;"><g id="Layer-1" serif:id="Layer 1"><rect x="0" y="0" width="8333.33" height="8333.33" style="fill:#07302c;fill-opacity:0;"/><g><path d="M5529.71,6010.87l-1242.56,-2168.96c-35.809,-62.5 -102.567,-101.261 -174.59,-101.365c-72.01,-0.111 -138.904,38.416 -174.909,100.793l-1568.18,2716.44l-1399.49,0l3142.9,-5443.8l3668.4,6305.8l-7579.71,0.019c-111.343,0 -201.579,90.237 -201.579,201.58c-0,111.323 90.236,201.586 201.579,201.586l7930.23,-0.019c72.01,-0 138.82,-38.651 174.727,-101.073c35.907,-62.422 35.712,-139.632 -0.494,-201.872l-4019.56,-6909.42c-36.22,-62.266 -102.561,-100.338 -174.591,-100.201c-72.01,0.117 -138.234,38.41 -174.239,100.793l-3491.36,6047.42c-36.024,62.357 -36.005,139.216 0.02,201.573c36.005,62.37 102.541,100.774 174.571,100.774l1865.02,-0c72.01,-0 138.566,-38.423 174.571,-100.793l1451.09,-2513.67l1068.33,1864.82c55.33,96.601 178.51,130.064 275.124,74.727c96.594,-55.349 130.063,-178.529 74.727,-275.123l-0.02,-0.02Z" style="fill:#34d399;fill-rule:nonzero;"/><path d="M2195.24,6049.83l1916.47,-3318.81l1997.97,3480.43c55.415,96.542 178.627,129.888 275.182,74.473c96.542,-55.434 129.888,-178.647 74.473,-275.188l-2172.28,-3784.06c-35.875,-62.467 -102.549,-101.124 -174.578,-101.209c-72.01,-0.091 -138.8,38.391 -174.805,100.774l-2091.56,3621.99c-55.694,96.405 -22.66,219.696 73.758,275.39c96.399,55.668 219.696,22.634 275.384,-73.765l-0.02,-0.019Z" style="fill:#34d399;fill-rule:nonzero;"/><path d="M3937.41,2427.38l2370.99,4130.32l-465.438,0l-1555.82,-2715.79c-55.35,-96.614 -178.529,-130.045 -275.123,-74.688c-96.62,55.343 -130.045,178.51 -74.688,275.123l1613.88,2817.16c35.79,62.48 102.899,101.365 174.928,101.365l930.422,-0c72.01,-0 138.345,-38.254 174.435,-100.579c36.083,-62.324 36.219,-138.904 0.377,-201.345l-2544.33,-4432.26c-55.441,-96.555 -178.634,-129.881 -275.169,-74.447c-96.555,55.408 -129.888,178.601 -74.454,275.163l-0.019,-0.02Z" style="fill:#34d399;fill-rule:nonzero;"/></g></g></svg>